#!OML:ASF H:\charlestonDancing\Project 1\Capture day 1\Session 1\femaleDancer.ASF
:FULLY-SPECIFIED
:DEGREES
187
root -14.7492 17.5953 1.50174 15.3889 -84.9575 -12.3502
lowerback 7.97281 5.61055 6.74084
upperback -5.46383 8.12104 -2.70252
thorax -8.98519 3.41132 -7.85031
lowerneck 3.36699 14.1522 13.3439
upperneck 12.0898 20.6686 -14.6281
head 6.03562 10.1092 -5.3786
rclavicle 2.22142e-014 1.35174e-014
rhumerus -248.07 218.468 -211.949
rradius 29.2807
rwrist 7.61592
rhand -30.1132 -61.3234
rfingers 7.12502
rthumb 176.573 -88.7244
lclavicle 2.22142e-014 1.35174e-014
lhumerus -29.4322 29.6734 13.1668
lradius 99.9364
lwrist -13.5805
lhand -10.5782 21.9431
lfingers 7.12502
lthumb 15.4268 51.3474
rfemur -11.7548 -1.34543 19.0923
rtibia 36.6271
rfoot -24.2044 -7.82605
rtoes -21.6313
lfemur -13.9407 -0.188819 -16.314
ltibia 39.4486
lfoot -19.4758 -7.79794
ltoes -15.7383
188
root -14.7396 17.5884 1.47367 13.5766 -83.2004 -10.8188
lowerback 8.33401 6.05092 7.06465
upperback -5.48609 8.73032 -3.32082
thorax -8.97512 3.66828 -8.81365
lowerneck 4.58679 14.1827 14.7265
upperneck 11.646 20.8358 -14.8377
head 5.89144 10.3133 -5.70909
rclavicle 6.75868e-015 -1.19271e-014
rhumerus -248.432 217.757 -213.445
rradius 29.8026
rwrist 7.91198
rhand -30.2307 -62.2862
rfingers 7.12502
rthumb 176.46 -87.7635
lclavicle 6.75868e-015 -1.19271e-014
lhumerus -29.3839 30.003 17.0327
lradius 97.7096
lwrist -14.1647
lhand -11.1856 23.3544
lfingers 7.12502
lthumb 14.8417 52.8028
rfemur -11.1821 -2.00981 19.5025
rtibia 36.5284
rfoot -24.3231 -8.61962
rtoes -21.3402
lfemur -14.1186 -1.20086 -15.9274
ltibia 39.6758
lfoot -19.0817 -8.36871
ltoes -15.5222
189
root -14.7284 17.5822 1.44309 13.0892 -81.4553 -10.6035
lowerback 8.42126 5.90942 6.98418
upperback -5.06443 8.52947 -3.31082
thorax -8.61002 3.61705 -8.70775
lowerneck 5.27272 14.9549 15.2553
upperneck 11.0398 22.0301 -15.6423
head 5.93103 10.9303 -5.9335
rclavicle 5.0541e-014 7.95139e-016
rhumerus -246.189 217.044 -215.912
rradius 29.6632
rwrist 9.29046
rhand -29.3417 -62.2182
rfingers 7.12502
rthumb 177.318 -87.8189
lclavicle 5.0541e-014 7.95139e-016
lhumerus -31.3813 31.2797 19.7153
lradius 95.563
lwrist -13.9753
lhand -11.9907 23.1479
lfingers 7.12502
lthumb 14.0659 52.6519
rfemur -10.6626 -2.71589 20.0021
rtibia 36.4335
rfoot -24.475 -9.16603
rtoes -20.0812
lfemur -14.3469 -2.20207 -15.4281
ltibia 39.9227
lfoot -18.7016 -8.96613
ltoes -14.7067
190
root -14.7141 17.5754 1.4136 11.4604 -79.6307 -9.18981
lowerback 8.51724 5.89702 6.84197
upperback -4.72635 8.4743 -3.55473
thorax -8.2857 3.62579 -8.86717
lowerneck 6.74281 15.3415 16.1588
upperneck 10.019 22.7544 -16.531
head 5.70457 11.386 -6.36783
rclavicle -5.77469e-014 -1.51076e-014
rhumerus -244.669 216.47 -217.911
rradius 29.4268
rwrist 10.2909
rhand -29.0264 -61.4397
rfingers 7.12502
rthumb 177.623 -88.5938
lclavicle -5.77469e-014 -1.51076e-014
lhumerus -32.3718 32.4322 22.8295
lradius 93.1714
lwrist -14.2043
lhand -11.9601 21.6839
lfingers 7.12502
lthumb 14.0954 51.1858
rfemur -10.1776 -3.72971 20.2305
rtibia 36.3212
rfoot -24.5592 -9.59547
rtoes -19.1717
lfemur -14.6667 -3.20393 -15.1767
ltibia 40.1853
lfoot -18.276 -9.67995
ltoes -13.5197
191
root -14.698 17.5699 1.37907 9.69647 -77.836 -7.62044
lowerback 8.66871 6.02594 6.57468
upperback -4.41095 8.58671 -3.91823
thorax -7.98602 3.7171 -9.11359
lowerneck 6.66508 15.6711 16.0367
upperneck 10.495 23.1456 -15.7253
head 5.82024 11.5806 -6.03383
rclavicle 1.67228e-014 -1.35174e-014
rhumerus -243.67 216.011 -219.593
rradius 29.3432
rwrist 10.6792
rhand -30.2545 -60.365
rfingers 7.12502
rthumb 176.437 -89.685
lclavicle 1.67228e-014 -1.35174e-014
lhumerus -32.6437 33.4184 26.2653
lradius 90.6345
lwrist -14.9961
lhand -10.2707 21.0468
lfingers 7.12502
lthumb 15.7229 50.4281
rfemur -9.71114 -4.65307 20.3537
rtibia 36.1851
rfoot -24.5349 -10.286
rtoes -19.3743
lfemur -15.0264 -4.12845 -15.0547
ltibia 40.4669
lfoot -17.8575 -10.3268
ltoes -13.3417
192
root -14.6818 17.5657 1.33779 10.1826 -76.0914 -8.34168
lowerback 8.83921 6.18845 6.62981
upperback -4.08257 8.79991 -4.13538
thorax -7.64194 3.84865 -9.39029
lowerneck 6.91419 15.8334 16.1868
upperneck 10.8342 23.3765 -15.2551
head 5.88525 11.7173 -5.89182
rclavicle 9.74293e-014 -2.94201e-014
rhumerus -242.79 215.645 -221.105
rradius 29.3313
rwrist 10.8699
rhand -30.9752 -59.7445
rfingers 7.12502
rthumb 175.741 -269.682
lclavicle 9.74293e-014 -2.94201e-014
lhumerus -32.6223 34 29.7032
lradius 87.8433
lwrist -15.4971
lhand -9.01843 21.8026
lfingers 7.12502
lthumb 16.9287 51.0849
rfemur -9.30146 -5.32528 21.0181
rtibia 36.045
rfoot -24.4167 -11.0901
rtoes -19.571
lfemur -15.4118 -4.85829 -14.3991
ltibia 40.7475
lfoot -17.4099 -11.006
ltoes -13.8803
193
root -14.6644 17.5587 1.29326 10.6037 -74.3674 -9.0369
lowerback 9.03352 6.31121 6.67539
upperback -3.70799 8.96001 -4.33376
thorax -7.2749 3.95879 -9.63451
lowerneck 7.16772 15.9007 16.3816
upperneck 11.3525 23.4835 -14.7158
head 5.98255 11.7942 -5.74832
rclavicle -3.95519e-014 3.02153e-014
rhumerus -241.886 215.435 -222.514
rradius 29.2906
rwrist 11.3386
rhand -30.2194 -60.1548
rfingers 7.12502
rthumb 176.471 -89.8947
lclavicle -3.95519e-014 3.02153e-014
lhumerus -32.4001 34.299 33.0323
lradius 84.7222
lwrist -15.541
lhand -9.75369 22.5015
lfingers 7.12502
lthumb 16.2208 51.8429
rfemur -8.87383 -6.02425 21.7104
rtibia 35.9037
rfoot -24.184 -11.823
rtoes -19.7737
lfemur -15.7829 -5.4819 -13.7118
ltibia 41.0124
lfoot -17.04 -11.5491
ltoes -15.4181
194
root -14.6446 17.5515 1.24732 9.53623 -72.704 -8.27264
lowerback 9.34457 6.41529 6.37163
upperback -3.25495 9.04303 -4.64999
thorax -6.93644 4.04402 -9.81608
lowerneck 7.10012 15.8801 16.335
upperneck 12.2679 23.395 -13.752
head 6.1454 11.7593 -5.43665
rclavicle 2.26863e-014 -2.06736e-014
rhumerus -241.01 215.461 -223.72
rradius 29.2582
rwrist 12.2204
rhand -29.4877 -60.4882
rfingers 7.12502
rthumb 177.177 -89.5507
lclavicle 2.26863e-014 -2.06736e-014
lhumerus -31.9993 34.3361 36.2884
lradius 81.6329
lwrist -15.4223
lhand -10.7245 23.0033
lfingers 7.12502
lthumb 15.2859 52.4185
rfemur -8.37321 -6.80363 21.9256
rtibia 35.7581
rfoot -23.9691 -12.4707
rtoes -19.9712
lfemur -16.0692 -6.21261 -13.5101
ltibia 41.2624
lfoot -16.741 -11.9548
ltoes -16.7794
195
root -14.6221 17.5474 1.20062 8.68991 -71.0418 -7.71089
lowerback 9.73293 6.45749 6.12524
upperback -2.82548 9.05167 -4.9798
thorax -6.67316 4.08192 -10.0532
lowerneck 6.76946 15.7987 16.1794
upperneck 13.6866 23.1657 -12.4267
head 6.4375 11.6488 -4.98548
rclavicle 9.85475e-014 -6.36111e-015
rhumerus -239.942 215.319 -225.289
rradius 29.268
rwrist 12.5849
rhand -29.2871 -59.7874
rfingers 7.12502
rthumb 177.371 90.249
lclavicle 9.85475e-014 -6.36111e-015
lhumerus -31.668 33.8928 39.1605
lradius 78.7744
lwrist -15.5937
lhand -10.0544 22.6612
lfingers 7.12502
lthumb 15.9313 52.0259
rfemur -7.94388 -7.59613 22.1522
rtibia 35.6186
rfoot -23.8978 -13.051
rtoes -19.9531
lfemur -16.3964 -7.05459 -13.2843
ltibia 41.4998
lfoot -16.2018 -12.6292
ltoes -16.0346
196
root -14.5972 17.5424 1.1532 8.61473 -69.3376 -7.86704
lowerback 10.078 6.40643 6.06544
upperback -2.45745 8.96436 -5.23098
thorax -6.45729 4.06077 -10.3006
lowerneck 6.51826 15.5856 16.1535
upperneck 15.349 22.7734 -11.1829
head 6.80683 11.4709 -4.59586
rclavicle 7.93151e-014 -9.54166e-015
rhumerus -238.59 214.864 -227.233
rradius 29.2582
rwrist 12.6317
rhand -29.6885 -58.69
rfingers 7.12502
rthumb 176.983 91.3516
lclavicle 7.93151e-014 -9.54166e-015
lhumerus -31.4867 33.027 41.6813
lradius 76.0544
lwrist -15.9775
lhand -8.66064 21.9611
lfingers 7.12502
lthumb 17.2731 51.2135
rfemur -7.63941 -8.38197 22.6392
rtibia 35.4724
rfoot -23.9919 -13.5361
rtoes -19.366
lfemur -16.8542 -7.9201 -12.7886
ltibia 41.7272
lfoot -15.5001 -13.4168
ltoes -14.3417
197
root -14.5714 17.5353 1.10485 8.9844 -67.666 -8.43562
lowerback 10.3472 6.32675 6.10777
upperback -2.09 8.85734 -5.38276
thorax -6.20478 4.03091 -10.483
lowerneck 6.47758 15.2107 16.0198
upperneck 16.9722 22.1661 -10.0675
head 7.11328 11.196 -4.27921
rclavicle 6.36111e-014 2.38542e-014
rhumerus -237.24 214.458 -228.956
rradius 29.34
rwrist 13.0216
rhand -30.3102 -58.0629
rfingers 7.12502
rthumb 176.383 91.988
lclavicle 6.36111e-014 2.38542e-014
lhumerus -31.2785 32.0082 44.0476
lradius 73.2616
lwrist -16.2753
lhand -7.69056 21.5155
lfingers 7.12502
lthumb 18.2066 50.6834
rfemur -7.42175 -9.09426 23.3189
rtibia 35.3016
rfoot -24.043 -14.0128
rtoes -18.3862
lfemur -17.3877 -8.71589 -12.1074
ltibia 41.9501
lfoot -14.7488 -14.2037
ltoes -12.1064
198
root -14.5464 17.5315 1.05461 9.36598 -66.0844 -8.95231
lowerback 10.5272 6.22563 6.08152
upperback -1.69332 8.71392 -5.45891
thorax -5.90104 3.99134 -10.5236
lowerneck 6.60248 14.8032 15.5189
upperneck 18.5986 21.4839 -8.89245
head 7.34829 10.8777 -3.92006
rclavicle 1.10723e-013 -3.18055e-014
rhumerus -235.755 214.028 -230.665
rradius 29.5324
rwrist 13.2861
rhand -30.4419 -57.6115
rfingers 7.12502
rthumb 176.256 92.4416
lclavicle 1.10723e-013 -3.18055e-014
lhumerus -31.1369 31.1516 46.1081
lradius 70.2934
lwrist -16.7163
lhand -6.49868 20.1686
lfingers 7.12502
lthumb 19.3529 49.2256
rfemur -7.30438 -9.67487 24.0201
rtibia 35.1169
rfoot -24.0143 -14.5243
rtoes -17.1394
lfemur -17.9813 -9.36096 -11.4285
ltibia 42.1508
lfoot -14.014 -14.9608
ltoes -10.5311
199
root -14.5196 17.5318 1.00503 9.17046 -64.5677 -8.77259
lowerback 10.6518 6.13712 5.79484
upperback -1.2634 8.54443 -5.59157
thorax -5.56518 3.94814 -10.4652
lowerneck 6.52548 14.1705 14.9952
upperneck 20.62 20.4179 -7.48408
head 7.69158 10.3823 -3.49727
rclavicle 6.59965e-014 1.59028e-014
rhumerus -234.174 213.496 -232.496
rradius 29.7926
rwrist 13.1522
rhand -29.9156 -57.2201
rfingers 7.12502
rthumb 176.764 92.8247
lclavicle 6.59965e-014 1.59028e-014
lhumerus -30.8717 30.1496 48.1624
lradius 67.355
lwrist -16.6615
lhand -5.85388 19.1367
lfingers 7.12502
lthumb 19.9728 48.1303
rfemur -7.2891 -10.3591 24.4003
rtibia 34.9532
rfoot -23.9139 -15.082
rtoes -16.6347
lfemur -18.623 -10.0076 -11.0764
ltibia 42.2858
lfoot -13.5018 -15.4933
ltoes -10.6657
200
root -14.4906 17.5327 0.957568 8.8438 -63.1626 -8.48133
lowerback 10.8627 6.07877 5.53307
upperback -0.792495 8.41651 -5.79382
thorax -5.21107 3.92402 -10.5105
lowerneck 6.31995 13.373 14.7419
upperneck 23.012 19.1306 -6.29561
head 8.2398 9.7913 -3.17417
rclavicle 1.62606e-013 -1.74931e-014
rhumerus -232.741 213.106 -234.28
rradius 30.1619
rwrist 13.1273
rhand -29.5979 -56.8097
rfingers 7.12502
rthumb 177.071 93.2307
lclavicle 1.62606e-013 -1.74931e-014
lhumerus -30.3869 28.7869 50.2303
lradius 64.653
lwrist -16.0236
lhand -6.01268 19.0299
lfingers 7.12502
lthumb 19.8202 48.0393
rfemur -7.28766 -11.1339 24.6632
rtibia 34.8411
rfoot -23.7132 -15.726
rtoes -17.2929
lfemur -19.1779 -10.6863 -10.825
ltibia 42.3427
lfoot -13.1371 -15.8777
ltoes -11.0662
201
root -14.4595 17.5334 0.911764 8.63064 -61.8872 -8.37744
lowerback 11.2077 5.9436 5.41373
upperback -0.258221 8.20797 -6.00264
thorax -4.86063 3.85579 -10.6504
lowerneck 5.98133 12.701 14.4721
upperneck 25.6122 17.9785 -5.20385
head 8.94571 9.26425 -2.84277
rclavicle 1.05356e-014 7.95139e-015
rhumerus -231.125 212.672 -236.232
rradius 30.5097
rwrist 13.4414
rhand -29.8211 -56.2876
rfingers 7.12502
rthumb 176.855 93.7558
lclavicle 1.05356e-014 7.95139e-015
lhumerus -29.9034 27.5505 51.944
lradius 62.0873
lwrist -15.6685
lhand -5.80831 18.787
lfingers 7.12502
lthumb 20.0166 47.776
rfemur -7.27145 -11.7813 24.9749
rtibia 34.7811
rfoot -23.6026 -16.2753
rtoes -17.3316
lfemur -19.6058 -11.2906 -10.5344
ltibia 42.342
lfoot -12.7823 -16.272
ltoes -11.4004
